# xmcd CD database file
#
# Track frame offsets:
#	150
#	14220
#	39525
#	59882
#	71820
#	100987
#	121929
#	141525
#	160107
#	194575
#
# Disc length: 2883 seconds
#
# Revision: 0
# Processed by: cddbd v1.4PL0 Copyright (c) Steve Scherf et al.
# Submitted via: CDex 1.50Beta6
#
DISCID=a10b410a
DTITLE=Schmied-Schlott - PAmagieRA
DYEAR=1995
DGENRE=New Age
TTITLE0=NoExit
TTITLE1=3Dolphins
TTITLE2=Invisible Carousel
TTITLE3=Old Praha
TTITLE4=In Emerald Town
TTITLE5=Sea Grass
TTITLE6=Magiera
TTITLE7=Galapagos
TTITLE8=Easter Walk
TTITLE9=Gentle Wind
EXTD=YEAR: 1995
EXTT0=
EXTT1=
EXTT2=
EXTT3=
EXTT4=
EXTT5=
EXTT6=
EXTT7=
EXTT8=
EXTT9=
PLAYORDER=
